<svg xmlns="http://www.w3.org/2000/svg" width="145" height="129" viewBox="0 0 145 129">
  <path fill="#FFF" fill-rule="evenodd" d="M39.1800875,3.00147416 C62.7090337,2.9251279 71.3248604,17.4687668 73.2117072,21.6764098 C80.7059599,9.25515226 91.8227791,3.06871622 106.562165,3.11710164 C117.1724,3.15193217 135.105212,7.96295592 119.162752,24.5592413 C108.161495,36.0116766 91.6596101,53.1903296 69.6570965,76.0952002 C69.6588614,78.5401482 71.5969617,80.4717108 75.4713973,81.8898879 C81.0357464,83.9266317 88.2097339,76.9582139 92.1355605,74.2011069 L92.6393292,73.8596089 C96.4280572,71.3982067 104.564079,61.4455039 104.800924,58.1570672 C104.958822,55.964776 106.026282,53.0153199 108.003305,49.308699 L109.193339,47.9163035 C140.215369,11.9689616 144.926162,24.2955322 145,44.7131071 C145.131946,82.2837428 78.2709302,129.076904 73.2117072,132 C61.6154868,123.510782 44.4533017,110.649559 36.3792785,101.697472 C30.9965964,95.7294134 34.7462132,86.6021155 47.6281289,74.315578 C49.4835679,72.4390343 52.4618776,71.4357764 54.0403712,71.4194564 C56.4081116,71.3949763 58.2243935,72.9827492 62.1478049,69.3563722 L76.5971083,54.3491671 C77.647824,53.2578823 77.6251612,51.5181553 76.5463794,50.4549263 C75.4660543,49.3901761 73.7348464,49.3982033 72.6643299,50.4729263 L59.5261258,63.6627561 C58.4471833,64.5262132 57.6957476,64.6923708 57.2718188,64.1612289 C56.84789,63.6300869 56.997697,62.9257499 57.7212398,62.0482176 L70.7433434,48.5804096 C71.7958599,47.4918689 71.7750287,45.7523638 70.6967498,44.6896304 C69.6171455,43.6255907 67.8863556,43.6360708 66.8195699,44.7131071 L53.8601092,57.797094 C52.5922033,58.9606216 51.7064436,59.1882544 51.20283,58.4799922 C50.6992165,57.7717301 51.0191423,56.8877558 52.1626076,55.8280695 L64.8837706,42.8047668 C65.8770882,41.787857 65.921894,40.1899887 65.0280161,39.1206387 L64.8471202,38.9243345 C63.7673048,37.8600867 62.0367034,37.8688104 60.9675273,38.9438672 L52.0836127,47.8473699 C48.8541645,51.0670341 46.9076465,52.9772729 46.2440586,53.5780864 L46.177869,53.6374487 C43.7672466,55.7755167 43.2877,58.8736949 43.9808925,61.9413967 C44.4430209,63.9865312 43.7435117,67.5904083 41.6990286,69.9174145 C40.1425758,72.1879763 38.0178018,74.669354 35.3247067,77.3615474 C30.7948495,81.8898879 22.8244506,89.3926317 16.4944136,80.7186106 C10.146004,72.0194137 0,57.797094 0,43.3726536 C0,26.0264549 11.745611,3.09244193 39.1800875,3.00147416 Z" transform="translate(0 -3)"/>
</svg>
