<?xml version="1.0" encoding="utf-8"?>
<!-- Generator: Adobe Illustrator 23.1.1, SVG Export Plug-In . SVG Version: 6.00 Build 0)  -->
<svg version="1.1" id="Layer_1" xmlns="http://www.w3.org/2000/svg" xmlns:xlink="http://www.w3.org/1999/xlink" x="0px" y="0px"
	 viewBox="0 0 1225.3 241" style="enable-background:new 0 0 1225.3 241;" xml:space="preserve">
<style type="text/css">
	.st0{fill-rule:evenodd;clip-rule:evenodd;fill:#DA523B;}
	.st1{enable-background:new    ;}
	.st2{fill:#164A44;}
</style>
<g id="Isolation_Mode">
	<path class="st0" d="M73,0c43.9-0.1,59.9,27,63.4,34.8c14-23.2,34.7-34.7,62.2-34.6c19.8,0.1,53.2,9,23.5,40
		c-20.5,21.4-51.3,53.4-92.3,96.1c0,4.6,3.6,8.2,10.8,10.8c10.4,3.8,23.7-9.2,31.1-14.3l0.9-0.6c7.1-4.6,22.2-23.1,22.7-29.3
		c0.3-4.1,2.3-9.6,6-16.5l2.2-2.6c57.8-67,66.6-44,66.8-6c0.2,70-124.4,157.3-133.8,162.7c-21.6-15.8-53.6-39.8-68.7-56.5
		c-10-11.1-3-28.1,21-51c3.5-3.5,9-5.4,12-5.4c4.4,0,7.8,2.9,15.1-3.8l26.9-28c2-2,1.9-5.3-0.1-7.3s-5.2-2-7.2,0L111,113.1
		c-2,1.6-3.4,1.9-4.2,0.9c-0.8-1-0.5-2.3,0.8-3.9L131.9,85c2-2,1.9-5.3-0.1-7.3s-5.2-2-7.2,0l-24.2,24.4c-2.4,2.2-4,2.6-5,1.3
		c-0.9-1.3-0.3-3,1.8-4.9L121,74.2c1.9-1.9,1.9-4.9,0.3-6.9l-0.3-0.4c-2-2-5.2-2-7.2,0L97.1,83.6c-6,6-9.6,9.6-10.9,10.7l-0.1,0.1
		c-4.5,4-5.4,9.8-4.1,15.5c0.9,3.8-0.4,10.5-4.3,14.9c-2.9,4.2-6.9,8.9-11.9,13.9c-8.4,8.4-23.3,22.4-35.1,6.3
		C18.9,128.7,0,102.2,0,75.3C0,42.9,21.9,0.2,73,0z"/>
	<g class="st1">
		<path class="st2" d="M329.4,92.5V2.7h33.2c7.2,0,13.1,1.2,17.8,3.6c4.7,2.4,8.2,5.7,10.5,9.9c2.3,4.2,3.5,8.9,3.5,14.1
			c0,5-1.1,9.5-3.3,13.7c-2.2,4.1-5.7,7.5-10.4,10c-4.7,2.5-10.7,3.8-18.1,3.8h-16.8v34.7H329.4z M345.9,44.4h15.8
			c5.7,0,9.9-1.3,12.4-3.8c2.5-2.5,3.8-6,3.8-10.3c0-4.4-1.3-7.9-3.8-10.5c-2.5-2.5-6.6-3.8-12.4-3.8h-15.8V44.4z"/>
		<path class="st2" d="M434.6,94c-6.4,0-12.1-1.4-17.1-4.1c-5-2.7-8.8-6.6-11.7-11.5c-2.8-5-4.2-10.7-4.2-17.2
			c0-6.6,1.4-12.4,4.2-17.6c2.8-5.1,6.6-9.1,11.5-12c4.9-2.9,10.7-4.3,17.4-4.3c6.2,0,11.8,1.4,16.5,4.1c4.8,2.7,8.5,6.5,11.2,11.2
			c2.7,4.7,4,10,4,15.8c0,0.9,0,1.9-0.1,2.9c0,1-0.1,2.1-0.2,3.2h-48.3c0.3,5,2.1,8.8,5.2,11.7c3.1,2.8,6.9,4.2,11.3,4.2
			c3.3,0,6.1-0.7,8.4-2.2c2.3-1.5,4-3.4,5.1-5.8h16.7c-1.2,4-3.2,7.7-6,11c-2.8,3.3-6.2,5.9-10.3,7.8C444.3,93.1,439.7,94,434.6,94z
			 M434.7,40.7c-4,0-7.6,1.1-10.6,3.4c-3.1,2.3-5,5.7-5.9,10.3h31.7c-0.3-4.2-1.8-7.5-4.6-10C442.4,41.9,438.9,40.7,434.7,40.7z"/>
		<path class="st2" d="M480.4,92.5V28.9H495l1.5,11.9c2.3-4.1,5.4-7.4,9.4-9.8c4-2.4,8.7-3.7,14-3.7v17.3h-4.6
			c-3.6,0-6.8,0.6-9.6,1.7c-2.8,1.1-5,3-6.6,5.8c-1.6,2.7-2.4,6.5-2.4,11.4v29H480.4z"/>
		<path class="st2" d="M559.5,92.5c-6.7,0-12-1.6-16-4.9c-4-3.2-6-9-6-17.3V42.6h-10.9V28.9h10.9l1.9-17.1h14.5v17.1H571v13.7h-17.2
			v27.8c0,3.1,0.7,5.2,2,6.3c1.3,1.2,3.6,1.7,6.9,1.7h7.9v14H559.5z"/>
		<path class="st2" d="M585.1,92.5V0.1h16.4v38.5c2.1-3.5,5-6.3,8.7-8.3c3.6-2,7.8-3,12.5-3c7.9,0,14,2.5,18.3,7.4
			c4.3,5,6.5,12.2,6.5,21.8v35.9h-16.3V58.1c0-5.5-1.1-9.7-3.3-12.6c-2.2-2.9-5.6-4.4-10.3-4.4c-4.6,0-8.4,1.6-11.5,4.9
			c-3,3.2-4.6,7.8-4.6,13.6v32.8H585.1z"/>
	</g>
	<g class="st1">
		<path class="st2" d="M329.4,211.9v-89.8h16.4v37.3h40.3v-37.3h16.4v89.8h-16.4v-39.1h-40.3v39.1H329.4z"/>
		<path class="st2" d="M450.1,213.4c-6.2,0-11.7-1.4-16.6-4.2c-4.9-2.8-8.8-6.7-11.7-11.7c-2.9-5-4.3-10.8-4.3-17.4
			c0-6.6,1.5-12.4,4.4-17.4c2.9-5,6.8-8.9,11.7-11.7c4.9-2.8,10.4-4.2,16.6-4.2c6.1,0,11.6,1.4,16.5,4.2c4.9,2.8,8.8,6.7,11.7,11.7
			c2.9,5,4.3,10.8,4.3,17.4c0,6.6-1.4,12.4-4.3,17.4c-2.9,5-6.8,8.9-11.7,11.7C461.7,212,456.2,213.4,450.1,213.4z M450.1,199.2
			c4.3,0,8-1.6,11.2-4.8c3.2-3.2,4.7-8,4.7-14.3c0-6.3-1.6-11.1-4.7-14.3c-3.2-3.2-6.8-4.8-11-4.8c-4.4,0-8.1,1.6-11.2,4.8
			c-3.1,3.2-4.7,8-4.7,14.3c0,6.3,1.6,11.1,4.7,14.3C442.1,197.6,445.8,199.2,450.1,199.2z"/>
		<path class="st2" d="M523.6,213.4c-5.6,0-10.6-0.9-14.9-2.8c-4.3-1.8-7.7-4.4-10.3-7.6c-2.6-3.2-4.1-7-4.6-11.3h16.5
			c0.5,2.5,1.9,4.6,4.2,6.3c2.3,1.8,5.2,2.6,8.8,2.6s6.2-0.7,7.9-2.2c1.7-1.5,2.5-3.1,2.5-5c0-2.7-1.2-4.6-3.6-5.6
			c-2.4-1-5.7-1.9-10-2.9c-2.7-0.6-5.5-1.3-8.3-2.2c-2.8-0.9-5.4-1.9-7.8-3.3c-2.4-1.3-4.3-3-5.7-5.1c-1.5-2.1-2.2-4.7-2.2-7.8
			c0-5.6,2.2-10.4,6.7-14.2c4.5-3.8,10.8-5.8,18.9-5.8c7.5,0,13.5,1.8,18,5.3c4.5,3.5,7.2,8.3,8,14.5h-15.5
			c-0.9-4.7-4.5-7.1-10.6-7.1c-3.1,0-5.4,0.6-7.1,1.8c-1.7,1.2-2.5,2.7-2.5,4.5c0,1.9,1.2,3.4,3.7,4.5c2.5,1.1,5.8,2.1,9.9,3.1
			c4.4,1,8.5,2.2,12.2,3.4c3.7,1.2,6.7,3.1,8.9,5.5c2.2,2.4,3.3,5.9,3.3,10.4c0.1,3.9-0.9,7.5-3.1,10.6c-2.1,3.2-5.2,5.6-9.2,7.4
			C533.8,212.5,529,213.4,523.6,213.4z"/>
		<path class="st2" d="M564.6,240.1v-91.8h14.6l1.8,9.1c2.1-2.8,4.8-5.3,8.1-7.4c3.4-2.1,7.8-3.2,13.1-3.2c6,0,11.3,1.5,16,4.4
			c4.7,2.9,8.4,6.9,11.2,11.9c2.7,5,4.1,10.8,4.1,17.2s-1.4,12.1-4.1,17.1c-2.7,5-6.5,8.9-11.2,11.8c-4.7,2.9-10,4.3-16,4.3
			c-4.8,0-9-0.9-12.6-2.7c-3.6-1.8-6.5-4.3-8.7-7.6v36.9H564.6z M598.8,199c5.2,0,9.5-1.8,13-5.3c3.4-3.5,5.1-8,5.1-13.6
			c0-5.6-1.7-10.1-5.1-13.7c-3.4-3.6-7.7-5.4-13-5.4c-5.3,0-9.6,1.8-13,5.3c-3.4,3.5-5.1,8.1-5.1,13.7c0,5.6,1.7,10.1,5.1,13.7
			C589.2,197.3,593.5,199,598.8,199z"/>
		<path class="st2" d="M657,138.4c-3,0-5.4-0.9-7.4-2.7c-1.9-1.8-2.9-4.1-2.9-6.8c0-2.7,1-5,2.9-6.7c1.9-1.8,4.4-2.6,7.4-2.6
			c3,0,5.4,0.9,7.4,2.6c1.9,1.8,2.9,4,2.9,6.7c0,2.7-1,5-2.9,6.8C662.5,137.5,660,138.4,657,138.4z M648.8,211.9v-63.6h16.4v63.6
			H648.8z"/>
		<path class="st2" d="M710.8,211.9c-6.7,0-12-1.6-16-4.9c-4-3.2-6-9-6-17.3V162h-10.9v-13.7h10.9l1.9-17.1h14.5v17.1h17.2V162
			h-17.2v27.8c0,3.1,0.7,5.2,2,6.3c1.3,1.2,3.6,1.7,6.9,1.7h8v14H710.8z"/>
		<path class="st2" d="M758.3,213.4c-5.5,0-10-0.9-13.5-2.6c-3.5-1.8-6.1-4.1-7.8-7c-1.7-2.9-2.6-6.1-2.6-9.6
			c0-5.9,2.3-10.7,6.9-14.4c4.6-3.7,11.5-5.5,20.8-5.5h16.2v-1.5c0-4.4-1.2-7.6-3.7-9.6c-2.5-2.1-5.6-3.1-9.2-3.1
			c-3.3,0-6.2,0.8-8.7,2.4c-2.5,1.6-4,3.9-4.6,7h-16c0.4-4.6,2-8.6,4.7-12.1c2.7-3.4,6.2-6,10.4-7.9c4.3-1.8,9.1-2.8,14.4-2.8
			c9.1,0,16.2,2.3,21.4,6.8c5.2,4.5,7.8,10.9,7.8,19.2v39.1h-14l-1.5-10.3c-1.9,3.4-4.5,6.2-7.9,8.5
			C768,212.3,763.6,213.4,758.3,213.4z M762,200.6c4.7,0,8.4-1.5,11-4.6c2.6-3.1,4.3-6.9,4.9-11.4h-14c-4.4,0-7.5,0.8-9.4,2.4
			c-1.9,1.6-2.8,3.5-2.8,5.8c0,2.5,0.9,4.4,2.8,5.8C756.5,199.9,759,200.6,762,200.6z"/>
		<path class="st2" d="M810.4,211.9v-92.3h16.4v92.3H810.4z"/>
		<path class="st2" d="M874.5,211.9v-89.8H894l28.6,56.9l28.2-56.9h19.5v89.8h-16.4v-61.9l-25,49.1h-13l-25-49.1v61.9H874.5z"/>
		<path class="st2" d="M1018.2,213.4c-6.4,0-12.1-1.4-17.1-4.1c-5-2.7-8.8-6.6-11.7-11.5c-2.8-5-4.2-10.7-4.2-17.2
			c0-6.6,1.4-12.4,4.2-17.6c2.8-5.1,6.6-9.1,11.5-12c4.9-2.9,10.7-4.3,17.4-4.3c6.2,0,11.8,1.4,16.5,4.1c4.8,2.7,8.5,6.5,11.2,11.2
			s4,10,4,15.8c0,0.9,0,1.9-0.1,2.9c0,1-0.1,2.1-0.2,3.2h-48.3c0.3,5,2.1,8.8,5.2,11.7c3.1,2.8,6.9,4.2,11.3,4.2
			c3.3,0,6.1-0.7,8.4-2.2c2.3-1.5,4-3.4,5.1-5.8h16.7c-1.2,4-3.2,7.7-6,11c-2.8,3.3-6.2,5.9-10.3,7.8
			C1027.9,212.5,1023.4,213.4,1018.2,213.4z M1018.4,160.1c-4,0-7.6,1.1-10.6,3.4c-3.1,2.3-5,5.7-5.9,10.3h31.7
			c-0.3-4.2-1.8-7.5-4.6-10C1026,161.3,1022.5,160.1,1018.4,160.1z"/>
		<path class="st2" d="M1085.9,213.4c-5.5,0-10-0.9-13.5-2.6c-3.5-1.8-6.1-4.1-7.8-7c-1.7-2.9-2.6-6.1-2.6-9.6
			c0-5.9,2.3-10.7,6.9-14.4c4.6-3.7,11.5-5.5,20.8-5.5h16.2v-1.5c0-4.4-1.2-7.6-3.7-9.6c-2.5-2.1-5.6-3.1-9.2-3.1
			c-3.3,0-6.2,0.8-8.7,2.4c-2.5,1.6-4,3.9-4.6,7h-16c0.4-4.6,2-8.6,4.7-12.1c2.7-3.4,6.2-6,10.4-7.9c4.3-1.8,9.1-2.8,14.4-2.8
			c9.1,0,16.2,2.3,21.4,6.8c5.2,4.5,7.8,10.9,7.8,19.2v39.1h-14l-1.5-10.3c-1.9,3.4-4.5,6.2-7.9,8.5
			C1095.6,212.3,1091.2,213.4,1085.9,213.4z M1089.6,200.6c4.7,0,8.4-1.5,11-4.6c2.6-3.1,4.3-6.9,4.9-11.4h-14
			c-4.4,0-7.5,0.8-9.4,2.4c-1.9,1.6-2.8,3.5-2.8,5.8c0,2.5,0.9,4.4,2.8,5.8C1084.1,199.9,1086.6,200.6,1089.6,200.6z"/>
		<path class="st2" d="M1138,211.9v-92.3h16.4v92.3H1138z"/>
		<path class="st2" d="M1197.5,213.4c-5.6,0-10.6-0.9-14.9-2.8c-4.3-1.8-7.7-4.4-10.3-7.6c-2.6-3.2-4.1-7-4.6-11.3h16.5
			c0.5,2.5,1.9,4.6,4.2,6.3c2.3,1.8,5.2,2.6,8.8,2.6c3.6,0,6.2-0.7,7.9-2.2c1.7-1.5,2.5-3.1,2.5-5c0-2.7-1.2-4.6-3.6-5.6
			c-2.4-1-5.7-1.9-10-2.9c-2.7-0.6-5.5-1.3-8.3-2.2c-2.8-0.9-5.4-1.9-7.8-3.3c-2.4-1.3-4.3-3-5.7-5.1c-1.5-2.1-2.2-4.7-2.2-7.8
			c0-5.6,2.2-10.4,6.7-14.2c4.5-3.8,10.8-5.8,18.9-5.8c7.5,0,13.5,1.8,18,5.3c4.5,3.5,7.2,8.3,8,14.5h-15.5
			c-0.9-4.7-4.5-7.1-10.6-7.1c-3.1,0-5.4,0.6-7.1,1.8c-1.7,1.2-2.5,2.7-2.5,4.5c0,1.9,1.2,3.4,3.7,4.5c2.5,1.1,5.8,2.1,9.9,3.1
			c4.4,1,8.5,2.2,12.2,3.4c3.7,1.2,6.7,3.1,8.9,5.5c2.2,2.4,3.3,5.9,3.3,10.4c0.1,3.9-0.9,7.5-3.1,10.6c-2.1,3.2-5.2,5.6-9.2,7.4
			C1207.7,212.5,1202.9,213.4,1197.5,213.4z"/>
	</g>
</g>
</svg>
