<svg enable-background="new 0 0 1225.3 241" viewBox="0 0 1225.3 241" xmlns="http://www.w3.org/2000/svg"><path clip-rule="evenodd" d="m73 0c43.9-.1 59.9 27 63.4 34.8 14-23.2 34.7-34.7 62.2-34.6 19.8.1 53.2 9 23.5 40-20.5 21.4-51.3 53.4-92.3 96.1 0 4.6 3.6 8.2 10.8 10.8 10.4 3.8 23.7-9.2 31.1-14.3l.9-.6c7.1-4.6 22.2-23.1 22.7-29.3.3-4.1 2.3-9.6 6-16.5l2.2-2.6c57.8-67 66.6-44 66.8-6 .2 70-124.4 157.3-133.8 162.7-21.6-15.8-53.6-39.8-68.7-56.5-10-11.1-3-28.1 21-51 3.5-3.5 9-5.4 12-5.4 4.4 0 7.8 2.9 15.1-3.8l26.9-28c2-2 1.9-5.3-.1-7.3s-5.2-2-7.2 0l-24.5 24.6c-2 1.6-3.4 1.9-4.2.9s-.5-2.3.8-3.9l24.3-25.1c2-2 1.9-5.3-.1-7.3s-5.2-2-7.2 0l-24.2 24.4c-2.4 2.2-4 2.6-5 1.3-.9-1.3-.3-3 1.8-4.9l23.8-24.3c1.9-1.9 1.9-4.9.3-6.9l-.3-.4c-2-2-5.2-2-7.2 0l-16.7 16.7c-6 6-9.6 9.6-10.9 10.7l-.1.1c-4.5 4-5.4 9.8-4.1 15.5.9 3.8-.4 10.5-4.3 14.9-2.9 4.2-6.9 8.9-11.9 13.9-8.4 8.4-23.3 22.4-35.1 6.3-11.8-16.3-30.7-42.8-30.7-69.7 0-32.4 21.9-75.1 73-75.3z" fill="#da523b" fill-rule="evenodd"/><g fill="#164a44"><g enable-background="new"><path d="m329.4 92.5v-89.8h33.2c7.2 0 13.1 1.2 17.8 3.6s8.2 5.7 10.5 9.9 3.5 8.9 3.5 14.1c0 5-1.1 9.5-3.3 13.7-2.2 4.1-5.7 7.5-10.4 10s-10.7 3.8-18.1 3.8h-16.8v34.7zm16.5-48.1h15.8c5.7 0 9.9-1.3 12.4-3.8s3.8-6 3.8-10.3c0-4.4-1.3-7.9-3.8-10.5-2.5-2.5-6.6-3.8-12.4-3.8h-15.8z"/><path d="m434.6 94c-6.4 0-12.1-1.4-17.1-4.1s-8.8-6.6-11.7-11.5c-2.8-5-4.2-10.7-4.2-17.2 0-6.6 1.4-12.4 4.2-17.6 2.8-5.1 6.6-9.1 11.5-12s10.7-4.3 17.4-4.3c6.2 0 11.8 1.4 16.5 4.1 4.8 2.7 8.5 6.5 11.2 11.2s4 10 4 15.8c0 .9 0 1.9-.1 2.9 0 1-.1 2.1-.2 3.2h-48.3c.3 5 2.1 8.8 5.2 11.7 3.1 2.8 6.9 4.2 11.3 4.2 3.3 0 6.1-.7 8.4-2.2s4-3.4 5.1-5.8h16.7c-1.2 4-3.2 7.7-6 11s-6.2 5.9-10.3 7.8c-3.9 1.9-8.5 2.8-13.6 2.8zm.1-53.3c-4 0-7.6 1.1-10.6 3.4-3.1 2.3-5 5.7-5.9 10.3h31.7c-.3-4.2-1.8-7.5-4.6-10-2.9-2.5-6.4-3.7-10.6-3.7z"/><path d="m480.4 92.5v-63.6h14.6l1.5 11.9c2.3-4.1 5.4-7.4 9.4-9.8s8.7-3.7 14-3.7v17.3h-4.6c-3.6 0-6.8.6-9.6 1.7s-5 3-6.6 5.8c-1.6 2.7-2.4 6.5-2.4 11.4v29z"/><path d="m559.5 92.5c-6.7 0-12-1.6-16-4.9-4-3.2-6-9-6-17.3v-27.7h-10.9v-13.7h10.9l1.9-17.1h14.5v17.1h17.1v13.7h-17.2v27.8c0 3.1.7 5.2 2 6.3 1.3 1.2 3.6 1.7 6.9 1.7h7.9v14h-11.1z"/><path d="m585.1 92.5v-92.4h16.4v38.5c2.1-3.5 5-6.3 8.7-8.3 3.6-2 7.8-3 12.5-3 7.9 0 14 2.5 18.3 7.4 4.3 5 6.5 12.2 6.5 21.8v35.9h-16.3v-34.3c0-5.5-1.1-9.7-3.3-12.6s-5.6-4.4-10.3-4.4c-4.6 0-8.4 1.6-11.5 4.9-3 3.2-4.6 7.8-4.6 13.6v32.8h-16.4z"/></g><g enable-background="new"><path d="m329.4 211.9v-89.8h16.4v37.3h40.3v-37.3h16.4v89.8h-16.4v-39.1h-40.3v39.1z"/><path d="m450.1 213.4c-6.2 0-11.7-1.4-16.6-4.2s-8.8-6.7-11.7-11.7-4.3-10.8-4.3-17.4 1.5-12.4 4.4-17.4 6.8-8.9 11.7-11.7 10.4-4.2 16.6-4.2c6.1 0 11.6 1.4 16.5 4.2s8.8 6.7 11.7 11.7 4.3 10.8 4.3 17.4-1.4 12.4-4.3 17.4-6.8 8.9-11.7 11.7c-5 2.8-10.5 4.2-16.6 4.2zm0-14.2c4.3 0 8-1.6 11.2-4.8s4.7-8 4.7-14.3-1.6-11.1-4.7-14.3c-3.2-3.2-6.8-4.8-11-4.8-4.4 0-8.1 1.6-11.2 4.8s-4.7 8-4.7 14.3 1.6 11.1 4.7 14.3c3 3.2 6.7 4.8 11 4.8z"/><path d="m523.6 213.4c-5.6 0-10.6-.9-14.9-2.8-4.3-1.8-7.7-4.4-10.3-7.6s-4.1-7-4.6-11.3h16.5c.5 2.5 1.9 4.6 4.2 6.3 2.3 1.8 5.2 2.6 8.8 2.6s6.2-.7 7.9-2.2 2.5-3.1 2.5-5c0-2.7-1.2-4.6-3.6-5.6s-5.7-1.9-10-2.9c-2.7-.6-5.5-1.3-8.3-2.2s-5.4-1.9-7.8-3.3c-2.4-1.3-4.3-3-5.7-5.1-1.5-2.1-2.2-4.7-2.2-7.8 0-5.6 2.2-10.4 6.7-14.2s10.8-5.8 18.9-5.8c7.5 0 13.5 1.8 18 5.3s7.2 8.3 8 14.5h-15.5c-.9-4.7-4.5-7.1-10.6-7.1-3.1 0-5.4.6-7.1 1.8s-2.5 2.7-2.5 4.5c0 1.9 1.2 3.4 3.7 4.5s5.8 2.1 9.9 3.1c4.4 1 8.5 2.2 12.2 3.4s6.7 3.1 8.9 5.5 3.3 5.9 3.3 10.4c.1 3.9-.9 7.5-3.1 10.6-2.1 3.2-5.2 5.6-9.2 7.4-3.9 2.1-8.7 3-14.1 3z"/><path d="m564.6 240.1v-91.8h14.6l1.8 9.1c2.1-2.8 4.8-5.3 8.1-7.4 3.4-2.1 7.8-3.2 13.1-3.2 6 0 11.3 1.5 16 4.4s8.4 6.9 11.2 11.9c2.7 5 4.1 10.8 4.1 17.2s-1.4 12.1-4.1 17.1-6.5 8.9-11.2 11.8-10 4.3-16 4.3c-4.8 0-9-.9-12.6-2.7s-6.5-4.3-8.7-7.6v36.9zm34.2-41.1c5.2 0 9.5-1.8 13-5.3 3.4-3.5 5.1-8 5.1-13.6s-1.7-10.1-5.1-13.7-7.7-5.4-13-5.4-9.6 1.8-13 5.3-5.1 8.1-5.1 13.7 1.7 10.1 5.1 13.7 7.7 5.3 13 5.3z"/><path d="m657 138.4c-3 0-5.4-.9-7.4-2.7-1.9-1.8-2.9-4.1-2.9-6.8s1-5 2.9-6.7c1.9-1.8 4.4-2.6 7.4-2.6s5.4.9 7.4 2.6c1.9 1.8 2.9 4 2.9 6.7s-1 5-2.9 6.8-4.4 2.7-7.4 2.7zm-8.2 73.5v-63.6h16.4v63.6z"/><path d="m710.8 211.9c-6.7 0-12-1.6-16-4.9-4-3.2-6-9-6-17.3v-27.7h-10.9v-13.7h10.9l1.9-17.1h14.5v17.1h17.2v13.7h-17.2v27.8c0 3.1.7 5.2 2 6.3 1.3 1.2 3.6 1.7 6.9 1.7h8v14h-11.3z"/><path d="m758.3 213.4c-5.5 0-10-.9-13.5-2.6-3.5-1.8-6.1-4.1-7.8-7s-2.6-6.1-2.6-9.6c0-5.9 2.3-10.7 6.9-14.4s11.5-5.5 20.8-5.5h16.2v-1.5c0-4.4-1.2-7.6-3.7-9.6-2.5-2.1-5.6-3.1-9.2-3.1-3.3 0-6.2.8-8.7 2.4s-4 3.9-4.6 7h-16c.4-4.6 2-8.6 4.7-12.1 2.7-3.4 6.2-6 10.4-7.9 4.3-1.8 9.1-2.8 14.4-2.8 9.1 0 16.2 2.3 21.4 6.8s7.8 10.9 7.8 19.2v39.1h-14l-1.5-10.3c-1.9 3.4-4.5 6.2-7.9 8.5s-7.8 3.4-13.1 3.4zm3.7-12.8c4.7 0 8.4-1.5 11-4.6s4.3-6.9 4.9-11.4h-14c-4.4 0-7.5.8-9.4 2.4s-2.8 3.5-2.8 5.8c0 2.5.9 4.4 2.8 5.8 2 1.3 4.5 2 7.5 2z"/><path d="m810.4 211.9v-92.3h16.4v92.3z"/><path d="m874.5 211.9v-89.8h19.5l28.6 56.9 28.2-56.9h19.5v89.8h-16.4v-61.9l-25 49.1h-13l-25-49.1v61.9z"/><path d="m1018.2 213.4c-6.4 0-12.1-1.4-17.1-4.1s-8.8-6.6-11.7-11.5c-2.8-5-4.2-10.7-4.2-17.2 0-6.6 1.4-12.4 4.2-17.6 2.8-5.1 6.6-9.1 11.5-12s10.7-4.3 17.4-4.3c6.2 0 11.8 1.4 16.5 4.1 4.8 2.7 8.5 6.5 11.2 11.2s4 10 4 15.8c0 .9 0 1.9-.1 2.9 0 1-.1 2.1-.2 3.2h-48.3c.3 5 2.1 8.8 5.2 11.7 3.1 2.8 6.9 4.2 11.3 4.2 3.3 0 6.1-.7 8.4-2.2s4-3.4 5.1-5.8h16.7c-1.2 4-3.2 7.7-6 11s-6.2 5.9-10.3 7.8c-3.9 1.9-8.4 2.8-13.6 2.8zm.2-53.3c-4 0-7.6 1.1-10.6 3.4-3.1 2.3-5 5.7-5.9 10.3h31.7c-.3-4.2-1.8-7.5-4.6-10-3-2.5-6.5-3.7-10.6-3.7z"/><path d="m1085.9 213.4c-5.5 0-10-.9-13.5-2.6-3.5-1.8-6.1-4.1-7.8-7s-2.6-6.1-2.6-9.6c0-5.9 2.3-10.7 6.9-14.4s11.5-5.5 20.8-5.5h16.2v-1.5c0-4.4-1.2-7.6-3.7-9.6-2.5-2.1-5.6-3.1-9.2-3.1-3.3 0-6.2.8-8.7 2.4s-4 3.9-4.6 7h-16c.4-4.6 2-8.6 4.7-12.1 2.7-3.4 6.2-6 10.4-7.9 4.3-1.8 9.1-2.8 14.4-2.8 9.1 0 16.2 2.3 21.4 6.8s7.8 10.9 7.8 19.2v39.1h-14l-1.5-10.3c-1.9 3.4-4.5 6.2-7.9 8.5s-7.8 3.4-13.1 3.4zm3.7-12.8c4.7 0 8.4-1.5 11-4.6s4.3-6.9 4.9-11.4h-14c-4.4 0-7.5.8-9.4 2.4s-2.8 3.5-2.8 5.8c0 2.5.9 4.4 2.8 5.8 2 1.3 4.5 2 7.5 2z"/><path d="m1138 211.9v-92.3h16.4v92.3z"/><path d="m1197.5 213.4c-5.6 0-10.6-.9-14.9-2.8-4.3-1.8-7.7-4.4-10.3-7.6s-4.1-7-4.6-11.3h16.5c.5 2.5 1.9 4.6 4.2 6.3 2.3 1.8 5.2 2.6 8.8 2.6s6.2-.7 7.9-2.2 2.5-3.1 2.5-5c0-2.7-1.2-4.6-3.6-5.6s-5.7-1.9-10-2.9c-2.7-.6-5.5-1.3-8.3-2.2s-5.4-1.9-7.8-3.3c-2.4-1.3-4.3-3-5.7-5.1-1.5-2.1-2.2-4.7-2.2-7.8 0-5.6 2.2-10.4 6.7-14.2s10.8-5.8 18.9-5.8c7.5 0 13.5 1.8 18 5.3s7.2 8.3 8 14.5h-15.5c-.9-4.7-4.5-7.1-10.6-7.1-3.1 0-5.4.6-7.1 1.8s-2.5 2.7-2.5 4.5c0 1.9 1.2 3.4 3.7 4.5s5.8 2.1 9.9 3.1c4.4 1 8.5 2.2 12.2 3.4s6.7 3.1 8.9 5.5 3.3 5.9 3.3 10.4c.1 3.9-.9 7.5-3.1 10.6-2.1 3.2-5.2 5.6-9.2 7.4-3.9 2.1-8.7 3-14.1 3z"/></g></g></svg>