<svg enable-background="new 0 0 787 137" viewBox="0 0 787 137" xmlns="http://www.w3.org/2000/svg" xmlns:xlink="http://www.w3.org/1999/xlink"><linearGradient id="a" gradientTransform="matrix(145.0002 0 0 -128.9988 -12672.0146 60047.4531)" gradientUnits="userSpaceOnUse" x1="88.4626" x2="87.2366" y1="465.2111" y2="464.7831"><stop offset="0" stop-color="#f3034d"/><stop offset="1" stop-color="#ff00b0"/></linearGradient><g transform="translate(0 -3)"><g enable-background="new" fill="#201f1f"><path d="m190.8 56.6h7.8v28.7h34.3v-28.7h7.8v64.4h-7.8v-28.8h-34.3v28.8h-7.8z"/><path d="m252.7 97.1c0-15.1 8.8-25 21.9-25s21.9 9.9 21.9 25c0 15-8.8 24.9-21.9 24.9s-21.9-9.9-21.9-24.9zm36.3 0c0-9.7-4.5-18.4-14.5-18.4s-14.5 8.7-14.5 18.4 4.5 18.2 14.5 18.2 14.5-8.5 14.5-18.2z"/><path d="m334.9 85.4c-1.3-3.3-4-6.9-10.4-6.9-5.9 0-10.3 3-10.3 7.2 0 3.7 2.6 5.6 8.3 7l7.2 1.8c8.6 2.1 12.8 6.3 12.8 13.1 0 8.3-7.6 14.5-18.9 14.5-9.9 0-16.6-4.4-18.4-12.6l7-1.8c1.3 5.2 5.1 7.8 11.2 7.8 6.9 0 11.3-3.4 11.3-7.5 0-3.3-2.3-5.7-7.2-6.8l-8-1.9c-8.9-2.1-12.8-6.5-12.8-13.2 0-8.2 7.5-14 17.7-14 9.6 0 14.8 4.6 17.1 11.4z"/><path d="m353.3 72.7h7.2v7.7h.9c1.6-2.5 4.5-8.3 14-8.3 12.2 0 20.6 9.7 20.6 24.9 0 15.3-8.4 25-20.5 25-9.3 0-12.4-5.8-14.1-8.4h-.6v25.5h-7.4v-66.4zm21.1 42.6c9.3 0 14.1-8.2 14.1-18.5 0-10.2-4.7-18.1-14.1-18.1-9.1 0-13.8 7.3-13.8 18.1 0 11 4.9 18.5 13.8 18.5z"/><path d="m405.3 59.6c0-2.8 2.4-5 5.3-5s5.3 2.3 5.3 5-2.4 5-5.3 5c-2.9.1-5.3-2.2-5.3-5zm1.6 13.1h7.4v48.3h-7.4z"/><path d="m448.5 79h-10.3v28.2c0 6.3 3.1 7.3 6.4 7.3 1.6 0 2.6-.3 3.3-.4l1.5 6.7c-1 .4-2.8.9-5.5.9-6.3 0-13.1-4-13.1-12.4v-30.3h-7.3v-6.3h7.3v-11.5h7.4v11.6h10.3z"/><path d="m457.1 107.3c0-11.1 9.8-13 18.7-14.2 8.8-1.1 12.4-.8 12.4-4.4v-.3c0-6.2-3.4-9.8-10.2-9.8-7.1 0-10.9 3.8-12.6 7.3l-7-2.5c3.8-8.8 12.1-11.3 19.4-11.3 6.2 0 17.9 1.8 17.9 17.1v31.8h-7.4v-6.5h-.4c-1.5 3.1-5.9 7.7-14.3 7.7-9.2-.1-16.5-5.5-16.5-14.9zm31.1-3.8v-6.8c-1.3 1.5-9.7 2.4-12.8 2.8-5.8.8-10.9 2.5-10.9 8.2 0 5.2 4.3 7.8 10.2 7.8 8.8 0 13.5-5.9 13.5-12z"/><path d="m516.3 121h-7.4v-64.4h7.4z"/><path d="m564.4 56.6 21.9 53.4h.8l21.9-53.4h9.3v64.4h-7.3v-48.9h-.6l-20.3 48.9h-7l-20.1-48.9h-.6v48.9h-7.3v-64.4z"/><path d="m630.1 97.2c0-14.8 8.7-25.1 21.8-25.1 10.1 0 20.7 6.2 20.7 24.1v3.1h-35c.3 10.3 6.3 16 15.1 16 5.8 0 10.2-2.5 12.1-7.5l7.2 2c-2.3 7.3-9.4 12.2-19.2 12.2-14.1 0-22.7-9.9-22.7-24.8zm35-4.2c0-8.2-5.2-14.2-13.2-14.2-8.5 0-13.8 6.7-14.3 14.2z"/><path d="m681.3 107.3c0-11.1 9.8-13 18.7-14.2 8.8-1.1 12.4-.8 12.4-4.4v-.3c0-6.2-3.4-9.8-10.2-9.8-7.1 0-10.9 3.8-12.6 7.3l-7-2.5c3.8-8.8 12.1-11.3 19.4-11.3 6.2 0 17.9 1.8 17.9 17.1v31.8h-7.4v-6.5h-.4c-1.5 3.1-5.9 7.7-14.3 7.7-9.2-.1-16.5-5.5-16.5-14.9zm31.2-3.8v-6.8c-1.3 1.5-9.7 2.4-12.8 2.8-5.8.8-10.9 2.5-10.9 8.2 0 5.2 4.3 7.8 10.2 7.8 8.7 0 13.5-5.9 13.5-12z"/><path d="m740.6 121h-7.4v-64.4h7.4z"/><path d="m781.3 85.4c-1.3-3.3-4-6.9-10.4-6.9-5.9 0-10.3 3-10.3 7.2 0 3.7 2.6 5.6 8.3 7l7.2 1.8c8.6 2.1 12.8 6.3 12.8 13.1 0 8.3-7.6 14.5-18.9 14.5-9.9 0-16.6-4.4-18.4-12.6l7-1.8c1.3 5.2 5.1 7.8 11.2 7.8 6.9 0 11.3-3.4 11.3-7.5 0-3.3-2.3-5.7-7.2-6.8l-8-1.9c-8.9-2.1-12.8-6.5-12.8-13.2 0-8.2 7.5-14 17.7-14 9.6 0 14.8 4.6 17.1 11.4z"/></g><g enable-background="new" fill="#acacac"><path d="m188.8 10.3h12.9c7.4 0 11.7 4.6 11.7 11.1s-4.4 11-11.9 11h-5.8v10.6h-6.9zm11.7 16.5c4 0 5.9-2.2 5.9-5.5s-1.9-5.4-5.9-5.4h-4.7v10.9z"/><path d="m217.8 10.3h22v5.7h-15.1v7.8h14v5.7h-14v7.8h15.2v5.7h-22.1z"/><path d="m245.2 10.3h12.9c7.4 0 11.7 4.2 11.7 10.7 0 4.5-2.1 7.7-5.8 9.3l7 12.7h-7.6l-6.2-11.6h-5v11.6h-6.9v-32.7zm11.6 15.5c4 0 5.9-1.6 5.9-4.9s-1.9-5-5.9-5h-4.7v9.9z"/><path d="m273.3 10.3h26.9v5.7h-10v27h-6.8v-27h-10v-5.7z"/><path d="m304.4 10.3h6.9v13.5h14v-13.5h6.9v32.7h-6.9v-13.5h-14v13.5h-6.9z"/></g><path clip-rule="evenodd" d="m39.2 3c23.5-.1 32.1 14.5 34 18.7 7.5-12.4 18.6-18.6 33.4-18.6 10.6 0 28.5 4.8 12.6 21.4-11 11.5-27.5 28.6-49.5 51.5 0 2.4 1.9 4.4 5.8 5.8 5.6 2 12.7-4.9 16.7-7.7l.5-.3c3.8-2.5 11.9-12.4 12.2-15.7.1-2.1 1.1-5.1 3.1-8.8l1.2-1.4c31-35.9 35.7-23.6 35.8-3.2.1 37.6-66.7 84.4-71.8 87.3-11.6-8.5-28.8-21.4-36.8-30.3-5.4-6-1.6-15.1 11.2-27.4 1.9-1.9 4.8-2.9 6.4-2.9 2.4 0 4.2 1.6 8.1-2.1l14.4-15c1.1-1.1 1-2.8-.1-3.9s-2.8-1.1-3.9 0l-13 13.3c-1.1.9-1.8 1-2.3.5s-.2-1.3.5-2.2l13-13.5c1.1-1.1 1-2.8 0-3.9-1.1-1.1-2.8-1.1-3.9 0l-13 13.1c-1.3 1.2-2.2 1.4-2.7.7s-.2-1.6 1-2.7l12.7-13c1-1 1-2.6.1-3.7l-.2-.2c-1.1-1.1-2.8-1.1-3.9 0l-8.9 8.9c-3.2 3.2-5.2 5.1-5.8 5.7l-.1.1c-2.4 2.1-2.9 5.2-2.2 8.3.5 2-.2 5.6-2.3 8-1.6 2.3-3.7 4.8-6.4 7.4-4.5 4.5-12.5 12-18.8 3.4-6.2-8.6-16.3-22.8-16.3-37.2 0-17.4 11.7-40.3 39.2-40.4z" fill="url(#a)" fill-rule="evenodd"/></g></svg>